<svg width="77" height="76" viewBox="0 0 77 76" fill="none" xmlns="http://www.w3.org/2000/svg">
<path d="M52.0553 29.1947C52.2761 29.4153 52.4513 29.6772 52.5708 29.9655C52.6904 30.2538 52.7519 30.5629 52.7519 30.875C52.7519 31.1871 52.6904 31.4962 52.5708 31.7845C52.4513 32.0728 52.2761 32.3347 52.0553 32.5553L35.4303 49.1803C35.2098 49.4011 34.9478 49.5763 34.6595 49.6958C34.3712 49.8153 34.0621 49.8769 33.75 49.8769C33.4379 49.8769 33.1288 49.8153 32.8405 49.6958C32.5522 49.5763 32.2903 49.4011 32.0697 49.1803L24.9447 42.0553C24.4991 41.6097 24.2487 41.0052 24.2487 40.375C24.2487 39.7448 24.4991 39.1403 24.9447 38.6947C25.3903 38.249 25.9948 37.9987 26.625 37.9987C27.2553 37.9987 27.8597 38.249 28.3053 38.6947L33.75 44.1423L48.6947 29.1947C48.9153 28.9739 49.1772 28.7987 49.4655 28.6792C49.7538 28.5596 50.0629 28.4981 50.375 28.4981C50.6871 28.4981 50.9962 28.5596 51.2845 28.6792C51.5728 28.7987 51.8347 28.9739 52.0553 29.1947ZM69.375 38C69.375 44.1065 67.5642 50.0759 64.1716 55.1532C60.779 60.2306 55.957 64.1879 50.3154 66.5248C44.6737 68.8616 38.4658 69.4731 32.4766 68.2817C26.4874 67.0904 20.986 64.1499 16.6681 59.8319C12.3501 55.514 9.40959 50.0126 8.21827 44.0234C7.02695 38.0342 7.63838 31.8263 9.97523 26.1846C12.3121 20.543 16.2694 15.721 21.3468 12.3284C26.4241 8.93579 32.3935 7.125 38.5 7.125C46.6859 7.13364 54.5341 10.3893 60.3224 16.1776C66.1107 21.9659 69.3664 29.8141 69.375 38ZM64.625 38C64.625 32.833 63.0928 27.782 60.2222 23.4857C57.3515 19.1895 53.2713 15.841 48.4976 13.8636C43.7239 11.8863 38.471 11.3689 33.4033 12.377C28.3355 13.385 23.6805 15.8732 20.0268 19.5268C16.3732 23.1805 13.885 27.8355 12.877 32.9033C11.869 37.971 12.3863 43.2239 14.3637 47.9976C16.341 52.7713 19.6895 56.8515 23.9857 59.7221C28.282 62.5928 33.333 64.125 38.5 64.125C45.4264 64.1171 52.0668 61.3622 56.9645 56.4645C61.8622 51.5668 64.6171 44.9264 64.625 38Z" fill="#009A2A"/>
</svg>
